<svg width="1920" height="1080" viewBox="0 0 1920 1080" xmlns="http://www.w3.org/2000/svg">
  <defs>
    <linearGradient id="heroGradient" x1="0%" y1="0%" x2="100%" y2="100%">
      <stop offset="0%" style="stop-color:#667eea;stop-opacity:1" />
      <stop offset="50%" style="stop-color:#764ba2;stop-opacity:1" />
      <stop offset="100%" style="stop-color:#ff6b9d;stop-opacity:1" />
    </linearGradient>
    <radialGradient id="starGradient" cx="50%" cy="50%" r="50%">
      <stop offset="0%" style="stop-color:#ffffff;stop-opacity:1" />
      <stop offset="100%" style="stop-color:#ffffff;stop-opacity:0" />
    </radialGradient>
  </defs>
  
  <!-- Background -->
  <rect width="1920" height="1080" fill="url(#heroGradient)"/>
  
  <!-- Stars -->
  <circle cx="200" cy="150" r="2" fill="url(#starGradient)" opacity="0.8"/>
  <circle cx="400" cy="200" r="1.5" fill="url(#starGradient)" opacity="0.6"/>
  <circle cx="600" cy="100" r="2.5" fill="url(#starGradient)" opacity="0.9"/>
  <circle cx="800" cy="250" r="1" fill="url(#starGradient)" opacity="0.7"/>
  <circle cx="1000" cy="180" r="2" fill="url(#starGradient)" opacity="0.8"/>
  <circle cx="1200" cy="120" r="1.5" fill="url(#starGradient)" opacity="0.6"/>
  <circle cx="1400" cy="220" r="2.5" fill="url(#starGradient)" opacity="0.9"/>
  <circle cx="1600" cy="160" r="1" fill="url(#starGradient)" opacity="0.7"/>
  
  <!-- Abstract shapes -->
  <path d="M100 800 Q300 700 500 800 T900 800" stroke="rgba(255,255,255,0.2)" stroke-width="3" fill="none"/>
  <path d="M1000 900 Q1200 800 1400 900 T1800 900" stroke="rgba(255,255,255,0.2)" stroke-width="3" fill="none"/>
  
  <!-- Geometric patterns -->
  <polygon points="150,950 200,900 250,950 200,1000" fill="rgba(255,255,255,0.1)"/>
  <polygon points="1650,950 1700,900 1750,950 1700,1000" fill="rgba(255,255,255,0.1)"/>
  
  <!-- Racing track elements -->
  <ellipse cx="960" cy="800" rx="400" ry="100" stroke="rgba(255,255,255,0.3)" stroke-width="2" fill="none"/>
  <ellipse cx="960" cy="800" rx="300" ry="75" stroke="rgba(255,255,255,0.2)" stroke-width="1" fill="none"/>
</svg>